ply
format ascii 1.0
element vertex 65
property float x
property float y
property float z
property float nx
property float ny
property float nz
property float intensity
property uchar red
property uchar green
property uchar blue
end_header
0 5 0 0.5 0.5 0 1 0 0 0 
0 0 0 0.5 0.5 0 1 0 0 0 
0.552 4.0 0 0.5 0.5 0 1 255 204 0 
0.552 4.0 0 0.5 0.5 0 1 255 204 0 
0.552 4.5 0 0.5 0.5 0 1 255 229 0 
0.656 4.5 0 0.5 0.5 0 1 255 229 0 
0.656 4.0 0 0.5 0.5 0 1 255 204 0 
0.656 4.8 0 0.5 0.5 0 1 255 244 0 
0.656 4.0 0 0.5 0.5 0 1 255 204 0 
0.76 4.5 0 0.5 0.5 0 1 255 229 0 
0.76 4.5 0 0.5 0.5 0 1 255 229 0 
0.76 4.5 0 0.5 0.5 0 1 255 229 0 
0.848 5.0 0 0.5 0.5 0 1 255 255 0 
0.848 4.0 0 0.5 0.5 0 1 255 204 0 
0.848 4.0 0 0.5 0.5 0 1 255 204 0 
0.936 4.4 0 0.5 0.5 0 1 255 224 0 
0.936 4.0 0 0.5 0.5 0 1 255 204 0 
0.936 4.0 0 0.5 0.5 0 1 255 204 0 
1.032 4.0 0 0.5 0.5 0 1 255 204 0 
1.032 4.4 0 0.5 0.5 0 1 255 224 0 
1.032 4.0 0 0.5 0.5 0 1 255 204 0 
1.1360000000000001 4.5 0 0.5 0.5 0 1 255 229 0 
1.1360000000000001 4.5 0 0.5 0.5 0 1 255 229 0 
1.1360000000000001 4.5 0 0.5 0.5 0 1 255 229 0 
1.24 3.8 0 0.5 0.5 0 1 255 193 0 
1.24 3.8 0 0.5 0.5 0 1 255 193 0 
1.24 4.0 0 0.5 0.5 0 1 255 204 0 
1.344 4.0 0 0.5 0.5 0 1 255 204 0 
1.344 3.5 0 0.5 0.5 0 1 255 178 0 
1.344 3.7 0 0.5 0.5 0 1 255 188 0 
1.344 3.2 0 0.5 0.5 0 1 255 163 0 
1.448 4.0 0 0.5 0.5 0 1 255 204 0 
1.448 4.0 0 0.5 0.5 0 1 255 204 0 
1.552 4.5 0 0.5 0.5 0 1 255 229 0 
1.552 4.5 0 0.5 0.5 0 1 255 229 0 
1.552 4.7 0 0.5 0.5 0 1 255 239 0 
1.552 4.0 0 0.5 0.5 0 1 255 204 0 
1.6400000000000001 4.5 0 0.5 0.5 0 1 255 229 0 
1.6400000000000001 4.0 0 0.5 0.5 0 1 255 204 0 
1.6400000000000001 4.0 0 0.5 0.5 0 1 255 204 0 
1.744 4.0 0 0.5 0.5 0 1 255 204 0 
1.744 4.0 0 0.5 0.5 0 1 255 204 0 
1.744 4.0 0 0.5 0.5 0 1 255 204 0 
1.848 4.0 0 0.5 0.5 0 1 255 204 0 
1.848 4.0 0 0.5 0.5 0 1 255 204 0 
1.848 4.0 0 0.5 0.5 0 1 255 204 0 
1.952 4.3 0 0.5 0.5 0 1 255 219 0 
1.952 4.0 0 0.5 0.5 0 1 255 204 0 
2.056 4.0 0 0.5 0.5 0 1 255 204 0 
2.056 4.5 0 0.5 0.5 0 1 255 229 0 
2.056 4.5 0 0.5 0.5 0 1 255 229 0 
2.16 4.0 0 0.5 0.5 0 1 255 204 0 
2.16 3.5 0 0.5 0.5 0 1 255 178 0 
2.16 3.5 0 0.5 0.5 0 1 255 178 0 
2.248 3.5 0 0.5 0.5 0 1 255 178 0 
2.248 4.0 0 0.5 0.5 0 1 255 204 0 
2.248 3.5 0 0.5 0.5 0 1 255 178 0 
2.352 4.3 0 0.5 0.5 0 1 255 219 0 
2.352 4.0 0 0.5 0.5 0 1 255 204 0 
2.352 4.5 0 0.5 0.5 0 1 255 229 0 
2.352 4.0 0 0.5 0.5 0 1 255 204 0 
2.456 4.0 0 0.5 0.5 0 1 255 204 0 
2.456 4.0 0 0.5 0.5 0 1 255 204 0 
2.456 3.5 0 0.5 0.5 0 1 255 178 0 
2.456 3.5 0 0.5 0.5 0 1 255 178 0 
